<?xml version="1.0" encoding="utf-8"?>
<!-- Generator: Adobe Illustrator 16.0.0, SVG Export Plug-In . SVG Version: 6.00 Build 0)  -->
<!DOCTYPE svg PUBLIC "-//W3C//DTD SVG 1.1//EN" "http://www.w3.org/Graphics/SVG/1.1/DTD/svg11.dtd">
<svg version="1.1" id="Layer_1" xmlns="http://www.w3.org/2000/svg" xmlns:xlink="http://www.w3.org/1999/xlink" x="0px" y="0px" style="background-color: white;"
	 width="1000px" height="600px" viewBox="0 0 500 300" enable-background="new 0 0 500 300" xml:space="preserve">
<g>

	<g>
		<g>

				<line fill="none" stroke="#498FE2" stroke-width="1.0256" stroke-miterlimit="10" x1="0.093" y1="0.618" x2="99.581" y2="0.618"/>
			<g>
				<rect x="99.068" y="-2.715" fill="#498FE2" width="1.025" height="6.666"/>
			</g>
		</g>
	</g>
	<g>
		<g>
			<line fill="none" stroke="#498FE2" stroke-width="1.0256" stroke-miterlimit="10" x1="100" y1="0.618" x2="199.488" y2="0.618"/>
			<g>
				<rect x="198.975" y="-2.715" fill="#498FE2" width="1.025" height="6.666"/>
			</g>
		</g>
	</g>
	<g>
		<g>
			<line fill="none" stroke="#498FE2" stroke-width="1.0256" stroke-miterlimit="10" x1="200" y1="0.618" x2="299.487" y2="0.618"/>
			<g>
				<rect x="298.975" y="-2.715" fill="#498FE2" width="1.025" height="6.666"/>
			</g>
		</g>
	</g>
	<g>
		<g>
			<line fill="none" stroke="#498FE2" stroke-width="1.0256" stroke-miterlimit="10" x1="300" y1="0.617" x2="399.487" y2="0.617"/>
			<g>
				<rect x="398.975" y="-2.716" fill="#498FE2" width="1.025" height="6.666"/>
			</g>
		</g>
	</g>
	<g>
		<g>

				<line fill="none" stroke="#498FE2" stroke-width="1.0256" stroke-miterlimit="10" x1="399.999" y1="0.618" x2="499.487" y2="0.618"/>
			<g>
				<rect x="498.975" y="-2.715" fill="#498FE2" width="1.025" height="6.666"/>
			</g>
		</g>
	</g>
</g>
<g>
	<path fill="#AAAAAA" d="M96.417,9.704c-0.11,0.027-0.255,0.173-0.434,0.44c-0.171,0.251-0.311,0.377-0.417,0.377
		c-0.175,0-0.263-0.076-0.263-0.229c0-0.156,0.188-0.39,0.566-0.703c0.366-0.301,0.623-0.452,0.771-0.452
		c0.106,0,0.206,0.035,0.297,0.103c0.106,0.08,0.16,0.181,0.16,0.303c0,0.084-0.099,0.484-0.297,1.2
		c-0.343,1.238-0.514,2.387-0.514,3.446c0,0.724,0.133,1.085,0.4,1.085h0.486c0.095,0,0.219,0.055,0.372,0.166
		c0.167,0.122,0.251,0.238,0.251,0.349l-0.023,0.171c-0.122-0.016-0.251-0.073-0.389-0.171c-0.091-0.061-0.221-0.092-0.389-0.092
		c-0.343,0-0.865,0.175-1.565,0.526c-0.153,0.076-0.25,0.114-0.292,0.114c-0.16,0-0.24-0.082-0.24-0.246
		c0-0.175,0.398-0.417,1.194-0.726c-0.164-0.271-0.246-0.596-0.246-0.978v-0.703c0-0.865,0.124-1.825,0.372-2.88
		C96.347,10.262,96.414,9.895,96.417,9.704z"/>
	<path fill="#AAAAAA" d="M99.823,16.127c-0.571,0-1.057-0.358-1.457-1.074c-0.32-0.567-0.488-1.087-0.503-1.56
		c-0.023-0.926,0.085-1.762,0.326-2.508C98.54,9.91,99.13,9.237,99.96,8.967c0.045-0.015,0.112-0.003,0.2,0.035
		c0.103,0.045,0.154,0.108,0.154,0.188c0,0.167-0.141,0.29-0.423,0.366c-0.51,0.129-0.937,0.678-1.28,1.646
		c-0.19,0.541-0.286,1.151-0.286,1.829c0,0.514,0.104,1.038,0.314,1.571c0.304,0.762,0.745,1.143,1.323,1.143
		c0.605,0,1.115-0.438,1.529-1.314c0.319-0.663,0.506-1.335,0.559-2.017c0.011-0.103,0.017-0.211,0.017-0.326
		c0-0.651-0.103-1.223-0.309-1.714c-0.255-0.605-0.613-0.908-1.074-0.908c-0.225,0-0.398,0.209-0.52,0.628
		c-0.049,0.049-0.099,0.074-0.148,0.074c-0.054,0-0.097-0.03-0.131-0.091c-0.035-0.061-0.044-0.124-0.029-0.188
		c0.049-0.251,0.187-0.454,0.412-0.606c0.187-0.125,0.377-0.188,0.571-0.188c0.537,0,0.973,0.362,1.309,1.085
		c0.274,0.595,0.412,1.206,0.412,1.834c0,0.899-0.215,1.762-0.646,2.588C101.385,15.619,100.688,16.127,99.823,16.127z"/>
	<path fill="#AAAAAA" d="M104.646,16.127c-0.571,0-1.057-0.358-1.457-1.074c-0.32-0.567-0.488-1.087-0.503-1.56
		c-0.023-0.926,0.085-1.762,0.326-2.508c0.351-1.075,0.941-1.747,1.771-2.018c0.045-0.015,0.112-0.003,0.2,0.035
		c0.103,0.045,0.154,0.108,0.154,0.188c0,0.167-0.141,0.29-0.423,0.366c-0.51,0.129-0.937,0.678-1.28,1.646
		c-0.19,0.541-0.286,1.151-0.286,1.829c0,0.514,0.104,1.038,0.314,1.571c0.304,0.762,0.745,1.143,1.323,1.143
		c0.605,0,1.115-0.438,1.529-1.314c0.319-0.663,0.506-1.335,0.559-2.017c0.011-0.103,0.017-0.211,0.017-0.326
		c0-0.651-0.103-1.223-0.309-1.714c-0.255-0.605-0.613-0.908-1.074-0.908c-0.225,0-0.398,0.209-0.52,0.628
		c-0.049,0.049-0.099,0.074-0.148,0.074c-0.054,0-0.097-0.03-0.131-0.091c-0.035-0.061-0.044-0.124-0.029-0.188
		c0.049-0.251,0.187-0.454,0.412-0.606c0.187-0.125,0.377-0.188,0.571-0.188c0.537,0,0.973,0.362,1.309,1.085
		c0.274,0.595,0.412,1.206,0.412,1.834c0,0.899-0.215,1.762-0.646,2.588C106.208,15.619,105.511,16.127,104.646,16.127z"/>
</g>
<g>
	<path fill="#AAAAAA" d="M193.565,13.521c-0.389,0.278-0.925,0.68-1.608,1.206c-0.461,0.381-0.692,0.661-0.692,0.84
		c0,0.034,0.054,0.052,0.16,0.052c0.187,0,0.631-0.115,1.333-0.343c0.725-0.24,1.253-0.36,1.585-0.36
		c0.221,0,0.446,0.059,0.675,0.177c0.293,0.145,0.44,0.335,0.44,0.571c0,0.145-0.083,0.282-0.251,0.412h-0.292
		c0.103-0.244,0.154-0.375,0.154-0.395c0-0.187-0.276-0.28-0.828-0.28c-0.347,0-0.739,0.078-1.177,0.234
		c-0.374,0.148-0.747,0.297-1.12,0.445c-0.244,0.088-0.438,0.132-0.583,0.132c-0.145,0-0.282-0.062-0.411-0.186
		c-0.129-0.124-0.194-0.258-0.194-0.403c0-0.286,0.259-0.661,0.777-1.125c0.206-0.183,0.749-0.609,1.629-1.28
		c0.739-0.567,1.276-1.024,1.611-1.371c0.469-0.488,0.703-0.907,0.703-1.257c0-0.529-0.301-0.794-0.903-0.794
		c-0.899,0-1.933,0.358-3.103,1.074c-0.236,0.145-0.375,0.217-0.417,0.217c-0.209,0-0.314-0.099-0.314-0.297
		c0-0.133,0.066-0.246,0.2-0.337c0.122-0.061,0.242-0.122,0.36-0.183c1.169-0.598,2.162-0.897,2.977-0.897
		c0.491,0,0.886,0.109,1.183,0.326c0.339,0.248,0.509,0.617,0.509,1.109c0,0.396-0.258,0.853-0.772,1.371
		C194.856,12.525,194.313,12.973,193.565,13.521z"/>
	<path fill="#AAAAAA" d="M198.156,16.127c-0.571,0-1.057-0.358-1.457-1.074c-0.32-0.567-0.488-1.087-0.503-1.56
		c-0.023-0.926,0.085-1.762,0.326-2.508c0.351-1.075,0.941-1.747,1.771-2.018c0.045-0.015,0.112-0.003,0.2,0.035
		c0.103,0.045,0.154,0.108,0.154,0.188c0,0.167-0.141,0.29-0.423,0.366c-0.51,0.129-0.937,0.678-1.28,1.646
		c-0.19,0.541-0.286,1.151-0.286,1.829c0,0.514,0.104,1.038,0.314,1.571c0.304,0.762,0.745,1.143,1.323,1.143
		c0.605,0,1.115-0.438,1.529-1.314c0.319-0.663,0.506-1.335,0.559-2.017c0.011-0.103,0.017-0.211,0.017-0.326
		c0-0.651-0.103-1.223-0.309-1.714c-0.255-0.605-0.613-0.908-1.074-0.908c-0.225,0-0.398,0.209-0.52,0.628
		c-0.049,0.049-0.099,0.074-0.148,0.074c-0.054,0-0.097-0.03-0.131-0.091c-0.035-0.061-0.044-0.124-0.029-0.188
		c0.049-0.251,0.187-0.454,0.412-0.606c0.187-0.125,0.377-0.188,0.571-0.188c0.537,0,0.973,0.362,1.309,1.085
		c0.274,0.595,0.412,1.206,0.412,1.834c0,0.899-0.215,1.762-0.646,2.588C199.718,15.619,199.021,16.127,198.156,16.127z"/>
	<path fill="#AAAAAA" d="M202.979,16.127c-0.571,0-1.057-0.358-1.457-1.074c-0.32-0.567-0.488-1.087-0.503-1.56
		c-0.023-0.926,0.085-1.762,0.326-2.508c0.351-1.075,0.941-1.747,1.771-2.018c0.045-0.015,0.112-0.003,0.2,0.035
		c0.103,0.045,0.154,0.108,0.154,0.188c0,0.167-0.141,0.29-0.423,0.366c-0.51,0.129-0.937,0.678-1.28,1.646
		c-0.19,0.541-0.286,1.151-0.286,1.829c0,0.514,0.104,1.038,0.314,1.571c0.304,0.762,0.745,1.143,1.323,1.143
		c0.605,0,1.115-0.438,1.529-1.314c0.319-0.663,0.506-1.335,0.559-2.017c0.011-0.103,0.017-0.211,0.017-0.326
		c0-0.651-0.103-1.223-0.309-1.714c-0.255-0.605-0.613-0.908-1.074-0.908c-0.225,0-0.398,0.209-0.52,0.628
		c-0.049,0.049-0.099,0.074-0.148,0.074c-0.054,0-0.097-0.03-0.131-0.091c-0.035-0.061-0.044-0.124-0.029-0.188
		c0.049-0.251,0.187-0.454,0.412-0.606c0.187-0.125,0.377-0.188,0.571-0.188c0.537,0,0.973,0.362,1.309,1.085
		c0.274,0.595,0.412,1.206,0.412,1.834c0,0.899-0.215,1.762-0.646,2.588C204.541,15.619,203.844,16.127,202.979,16.127z"/>
</g>
<g>
	<path fill="#AAAAAA" d="M294.171,11.91c-0.243,0.164-0.696,0.416-1.36,0.754c1.136,0.08,1.703,0.537,1.703,1.372
		c0,0.583-0.357,1.124-1.074,1.623c-0.655,0.461-1.279,0.691-1.874,0.691c-1.345,0-2.214-0.506-2.606-1.52
		c-0.025-0.046-0.039-0.09-0.039-0.132c0-0.091,0.036-0.148,0.108-0.171c0.076-0.026,0.141,0.006,0.194,0.097
		c0.152,0.381,0.428,0.682,0.828,0.903c0.373,0.206,0.781,0.309,1.223,0.309c0.599,0,1.201-0.167,1.807-0.503
		c0.682-0.377,1.022-0.823,1.022-1.337c0-0.598-0.627-0.897-1.88-0.897c-0.092,0-0.429,0.045-1.012,0.137
		c-0.114,0.02-0.198,0.029-0.252,0.029c-0.148,0-0.223-0.057-0.223-0.171c0-0.175,0.128-0.301,0.383-0.377
		c0.164-0.034,0.41-0.097,0.738-0.188c0.646-0.221,1.256-0.514,1.828-0.88c0.762-0.491,1.143-0.95,1.143-1.377
		c0-0.278-0.143-0.49-0.429-0.634c-0.251-0.126-0.544-0.177-0.88-0.154c-0.697,0.045-1.347,0.202-1.948,0.468
		c-0.396,0.171-0.695,0.349-0.897,0.532c-0.061,0.057-0.137,0.085-0.229,0.085c-0.202,0-0.303-0.083-0.303-0.251
		c0-0.248,0.369-0.518,1.108-0.812c0.762-0.301,1.507-0.451,2.234-0.451c1.227,0,1.84,0.421,1.84,1.263
		C295.325,10.872,294.94,11.403,294.171,11.91z"/>
	<path fill="#AAAAAA" d="M296.822,16.127c-0.571,0-1.057-0.358-1.457-1.074c-0.32-0.567-0.488-1.087-0.503-1.56
		c-0.022-0.926,0.085-1.762,0.325-2.508c0.352-1.075,0.941-1.747,1.771-2.018c0.046-0.015,0.113-0.003,0.2,0.035
		c0.103,0.045,0.154,0.108,0.154,0.188c0,0.167-0.141,0.29-0.423,0.366c-0.51,0.129-0.938,0.678-1.279,1.646
		c-0.191,0.541-0.286,1.151-0.286,1.829c0,0.514,0.104,1.038,0.313,1.571c0.305,0.762,0.746,1.143,1.324,1.143
		c0.604,0,1.114-0.438,1.529-1.314c0.318-0.663,0.506-1.335,0.559-2.017c0.012-0.103,0.018-0.211,0.018-0.326
		c0-0.651-0.104-1.223-0.309-1.714c-0.256-0.605-0.613-0.908-1.074-0.908c-0.225,0-0.398,0.209-0.521,0.628
		c-0.05,0.049-0.099,0.074-0.148,0.074c-0.054,0-0.097-0.03-0.132-0.091c-0.034-0.061-0.043-0.124-0.028-0.188
		c0.05-0.251,0.187-0.454,0.411-0.606c0.188-0.125,0.377-0.188,0.572-0.188c0.537,0,0.973,0.362,1.309,1.085
		c0.273,0.595,0.411,1.206,0.411,1.834c0,0.899-0.216,1.762-0.646,2.588C298.385,15.619,297.688,16.127,296.822,16.127z"/>
	<path fill="#AAAAAA" d="M301.645,16.127c-0.57,0-1.057-0.358-1.457-1.074c-0.32-0.567-0.487-1.087-0.502-1.56
		c-0.023-0.926,0.085-1.762,0.325-2.508c0.351-1.075,0.94-1.747,1.771-2.018c0.046-0.015,0.112-0.003,0.2,0.035
		c0.103,0.045,0.154,0.108,0.154,0.188c0,0.167-0.141,0.29-0.424,0.366c-0.51,0.129-0.937,0.678-1.279,1.646
		c-0.19,0.541-0.285,1.151-0.285,1.829c0,0.514,0.104,1.038,0.313,1.571c0.304,0.762,0.745,1.143,1.323,1.143
		c0.605,0,1.115-0.438,1.529-1.314c0.319-0.663,0.506-1.335,0.559-2.017c0.012-0.103,0.018-0.211,0.018-0.326
		c0-0.651-0.103-1.223-0.309-1.714c-0.256-0.605-0.613-0.908-1.074-0.908c-0.225,0-0.398,0.209-0.52,0.628
		c-0.05,0.049-0.1,0.074-0.148,0.074c-0.055,0-0.098-0.03-0.132-0.091s-0.044-0.124-0.028-0.188
		c0.049-0.251,0.186-0.454,0.411-0.606c0.187-0.125,0.377-0.188,0.571-0.188c0.537,0,0.973,0.362,1.309,1.085
		c0.274,0.595,0.412,1.206,0.412,1.834c0,0.899-0.216,1.762-0.646,2.588C303.207,15.619,302.51,16.127,301.645,16.127z"/>
</g>
<g>
	<path fill="#AAAAAA" d="M395.581,12.241l0.046-0.011c0.045-0.008,0.088-0.012,0.125-0.012c0.442,0,0.777,0.191,1.006,0.572
		l-0.097,0.337c-0.247-0.267-0.567-0.4-0.96-0.4c-0.016,0-0.094,0.028-0.234,0.085c-0.1,0.636-0.148,1.061-0.148,1.274v1.029
		c0,0.579,0.101,0.927,0.303,1.045c0.125,0.072,0.259,0.179,0.4,0.32c-0.232,0.045-0.354,0.068-0.36,0.068
		c-0.327,0-0.573-0.236-0.737-0.708c-0.11-0.332-0.166-0.697-0.166-1.097c0-0.213,0.033-0.518,0.098-0.914
		c0.068-0.412,0.104-0.712,0.108-0.903c-0.461,0.115-0.788,0.2-0.983,0.257c-0.369,0.11-0.688,0.23-0.953,0.36
		c-0.229,0.088-0.543,0.215-0.943,0.383c-0.289,0.13-0.469,0.194-0.537,0.194c-0.236,0-0.354-0.095-0.354-0.286
		c0-0.038,0.074-0.211,0.224-0.52c0.171-0.366,0.262-0.56,0.273-0.583c0.332-0.831,0.572-1.556,0.721-2.177
		c0.025-0.167,0.074-0.454,0.143-0.857c0.099-0.502,0.232-0.754,0.4-0.754c0.193,0,0.291,0.129,0.291,0.388
		c0,0.32-0.166,0.972-0.498,1.955c-0.319,0.941-0.605,1.653-0.856,2.137c0.362-0.099,0.924-0.28,1.686-0.543
		c0.808-0.282,1.3-0.471,1.475-0.566c0.083-0.499,0.213-1.089,0.388-1.771c0.24-0.929,0.432-1.394,0.572-1.394
		c0.201,0,0.303,0.097,0.303,0.292c0,0.145-0.12,0.588-0.359,1.332C395.735,11.443,395.611,11.933,395.581,12.241z"/>
	<path fill="#AAAAAA" d="M398.49,16.127c-0.572,0-1.058-0.358-1.457-1.074c-0.32-0.567-0.488-1.087-0.504-1.56
		c-0.022-0.926,0.086-1.762,0.326-2.508c0.351-1.075,0.941-1.747,1.771-2.018c0.045-0.015,0.112-0.003,0.199,0.035
		c0.104,0.045,0.154,0.108,0.154,0.188c0,0.167-0.141,0.29-0.422,0.366c-0.511,0.129-0.938,0.678-1.28,1.646
		c-0.19,0.541-0.286,1.151-0.286,1.829c0,0.514,0.105,1.038,0.314,1.571c0.305,0.762,0.745,1.143,1.323,1.143
		c0.604,0,1.114-0.438,1.529-1.314c0.319-0.663,0.506-1.335,0.56-2.017c0.011-0.103,0.017-0.211,0.017-0.326
		c0-0.651-0.103-1.223-0.309-1.714c-0.255-0.605-0.613-0.908-1.074-0.908c-0.225,0-0.397,0.209-0.521,0.628
		c-0.049,0.049-0.099,0.074-0.148,0.074c-0.053,0-0.097-0.03-0.131-0.091c-0.035-0.061-0.044-0.124-0.029-0.188
		c0.05-0.251,0.188-0.454,0.412-0.606c0.187-0.125,0.377-0.188,0.571-0.188c0.537,0,0.974,0.362,1.309,1.085
		c0.274,0.595,0.411,1.206,0.411,1.834c0,0.899-0.215,1.762-0.646,2.588C400.052,15.619,399.354,16.127,398.49,16.127z"/>
	<path fill="#AAAAAA" d="M403.313,16.127c-0.571,0-1.057-0.358-1.457-1.074c-0.32-0.567-0.488-1.087-0.503-1.56
		c-0.022-0.926,0.085-1.762,0.325-2.508c0.352-1.075,0.941-1.747,1.771-2.018c0.046-0.015,0.113-0.003,0.2,0.035
		c0.103,0.045,0.154,0.108,0.154,0.188c0,0.167-0.141,0.29-0.423,0.366c-0.51,0.129-0.938,0.678-1.279,1.646
		c-0.191,0.541-0.286,1.151-0.286,1.829c0,0.514,0.104,1.038,0.313,1.571c0.305,0.762,0.746,1.143,1.324,1.143
		c0.604,0,1.114-0.438,1.529-1.314c0.318-0.663,0.506-1.335,0.559-2.017c0.012-0.103,0.018-0.211,0.018-0.326
		c0-0.651-0.104-1.223-0.309-1.714c-0.256-0.605-0.613-0.908-1.074-0.908c-0.225,0-0.398,0.209-0.521,0.628
		c-0.05,0.049-0.099,0.074-0.148,0.074c-0.054,0-0.097-0.03-0.132-0.091c-0.034-0.061-0.043-0.124-0.028-0.188
		c0.05-0.251,0.187-0.454,0.411-0.606c0.188-0.125,0.377-0.188,0.572-0.188c0.537,0,0.973,0.362,1.309,1.085
		c0.273,0.595,0.411,1.206,0.411,1.834c0,0.899-0.216,1.762-0.646,2.588C404.875,15.619,404.178,16.127,403.313,16.127z"/>
</g>
<g>
	<g>
		<g id="tree">
			<path id="bark" fill="#A27729" d="M97.358,230.63c0,0,4.18-27.649,1.73-35.819l-18.55-25.03l3.01-2.74l17.45,19.87l1.91-37.6
				h4.44l1.83,24.53l15.26-16.35l3.27,4.359l-16.07,19.34c0,0-2.72,0-1.09,19.341c1.63,19.34,3,29.699,3,29.699L97.358,230.63z"/>
			<g id="leaves">
				<path fill="#8CC63F" d="M102.998,144.19c0,0-14.92,4.34-23.52-14.05c0,0,19.4-7.98,24.37,11.9c0,0-9.68-3.57-13.07-6.73
					C90.778,135.32,97.848,143.11,102.998,144.19z"/>
				<path fill="#8CC63F" d="M80.098,166.03c0,0-15.94-1.511-17.2-22.39c0,0,21.62-0.27,18.83,20.661c0,0-7.92-7.101-9.97-11.41
					C71.758,152.891,75.578,163.04,80.098,166.03z"/>
				<path fill="#8CC63F" d="M107.658,143.67c0,0,1.71-18.09,25.4-19.51c0,0,0.31,24.53-23.44,21.36c0,0,8.06-8.98,12.95-11.31
					C122.558,134.21,111.048,138.54,107.658,143.67z"/>
				<path fill="#8CC63F" d="M128.738,161.23c0,0,12.58-13.831,32.96-0.381c0,0-14.89,20.381-32.48,3.11c0,0,12.18-2.42,17.64-1.319
					C146.848,162.65,134.688,159.1,128.738,161.23z"/>
				<path fill="#8CC63F" d="M126.238,157.84c0,0-6.22-14.46,11.19-25.38c0,0,10.43,18.511-8.93,25.97c0,0,2.39-10.169,5.13-13.97
					C133.638,144.45,126.688,152.53,126.238,157.84z"/>
				<path fill="#8CC63F" d="M104.538,134.69c0,0-13.71-14.16,1.81-34.69c0,0,20.44,17.02,1.09,34.38c0,0-1.73-12.97-0.21-18.64
					C107.238,115.74,102.698,128.29,104.538,134.69z"/>
				<path fill="#8CC63F" d="M77.928,173.17c0,0-10.13,11.6-27.14,0.85c0,0,11.93-17.039,26.71-3.1c0,0-9.99,2.19-14.51,1.381
					C62.978,172.301,73.048,175.02,77.928,173.17z"/>
				<path fill="#8CC63F" d="M82.118,178.71c0,0,2.19,15.25-17.05,21.14c0,0-5.14-20.149,15.07-22.27c0,0-4.85,9.01-8.42,11.9
					C71.718,189.48,80.338,183.61,82.118,178.71z"/>
				<path fill="#8CC63F" d="M85.278,166.63c0,0-5.36-11.6,8.55-20.85c0,0,8.86,14.8-6.7,21.28c0,0,1.72-8.311,3.87-11.45
					C90.998,155.6,85.528,162.311,85.278,166.63z"/>
			</g>
		</g>
	</g>
	<g>
		<g>
			<line fill="none" stroke="#AAAAAA" stroke-width="1.0759" stroke-miterlimit="10" x1="50" y1="100" x2="51.378" y2="100"/>

				<line fill="none" stroke="#AAAAAA" stroke-width="1.0759" stroke-miterlimit="10" stroke-dasharray="2.8219,2.8219" x1="54.2" y1="100" x2="137.444" y2="100"/>
			<line fill="none" stroke="#AAAAAA" stroke-width="1.0759" stroke-miterlimit="10" x1="138.855" y1="100" x2="140.233" y2="100"/>
		</g>
	</g>
	<g>
		<g>

				<line fill="none" stroke="#AAAAAA" stroke-width="1.2945" stroke-miterlimit="10" x1="50.643" y1="100.007" x2="50.647" y2="101.507"/>

				<line fill="none" stroke="#AAAAAA" stroke-width="1.2945" stroke-miterlimit="10" stroke-dasharray="2.9679,2.9679" x1="50.657" y1="104.475" x2="51.066" y2="227.642"/>

				<line fill="none" stroke="#AAAAAA" stroke-width="1.2945" stroke-miterlimit="10" x1="51.071" y1="229.126" x2="51.076" y2="230.626"/>
		</g>
	</g>
</g>
<g>
	<g>
		<g id="tree_1_">
			<path id="bark_1_" fill="#A27729" d="M247.004,230.63c0,0,4.179-27.65,1.73-35.82l-18.551-25.029l3.01-2.74l17.451,19.87
				l1.91-37.601h4.439l1.83,24.531l15.26-16.351l3.27,4.36l-16.07,19.34c0,0-2.719,0-1.09,19.34
				c1.631,19.34,3.002,29.699,3.002,29.699L247.004,230.63z"/>
			<g id="leaves_1_">
				<path fill="#8CC63F" d="M252.645,144.19c0,0-14.92,4.34-23.52-14.051c0,0,19.399-7.979,24.37,11.9c0,0-9.679-3.57-13.07-6.73
					C240.424,135.32,247.495,143.11,252.645,144.19z"/>
				<path fill="#8CC63F" d="M229.745,166.03c0,0-15.94-1.51-17.2-22.391c0,0,21.62-0.27,18.83,20.66c0,0-7.921-7.1-9.97-11.41
					C221.405,152.89,225.224,163.04,229.745,166.03z"/>
				<path fill="#8CC63F" d="M257.305,143.67c0,0,1.709-18.09,25.4-19.51c0,0,0.309,24.53-23.441,21.36c0,0,8.061-8.98,12.951-11.311
					C272.205,134.21,260.693,138.54,257.305,143.67z"/>
				<path fill="#8CC63F" d="M278.385,161.229c0,0,12.58-13.83,32.959-0.379c0,0-14.889,20.379-32.479,3.109
					c0,0,12.18-2.42,17.639-1.32C296.494,162.649,284.334,159.101,278.385,161.229z"/>
				<path fill="#8CC63F" d="M275.885,157.841c0,0-6.221-14.461,11.189-25.381c0,0,10.43,18.51-8.93,25.971
					c0,0,2.391-10.17,5.129-13.971C283.285,144.45,276.334,152.53,275.885,157.841z"/>
				<path fill="#8CC63F" d="M254.184,134.69c0,0-13.709-14.16,1.811-34.69c0,0,20.439,17.021,1.09,34.38c0,0-1.73-12.97-0.209-18.64
					C256.885,115.74,252.344,128.29,254.184,134.69z"/>
				<path fill="#8CC63F" d="M227.575,173.17c0,0-10.131,11.601-27.141,0.851c0,0,11.93-17.041,26.711-3.101
					c0,0-9.99,2.19-14.511,1.38C212.625,172.3,222.694,175.021,227.575,173.17z"/>
				<path fill="#8CC63F" d="M231.764,178.71c0,0,2.189,15.25-17.05,21.141c0,0-5.14-20.15,15.069-22.271c0,0-4.85,9.011-8.42,11.899
					C221.364,189.479,229.985,183.61,231.764,178.71z"/>
				<path fill="#8CC63F" d="M234.924,166.63c0,0-5.359-11.6,8.55-20.85c0,0,8.86,14.8-6.7,21.279c0,0,1.721-8.31,3.871-11.449
					C240.645,155.601,235.174,162.31,234.924,166.63z"/>
			</g>
		</g>
	</g>
	<g>
		<g>
			<line fill="none" stroke="#AAAAAA" stroke-width="1.1532" stroke-miterlimit="10" x1="200.218" y1="100" x2="201.695" y2="100"/>

				<line fill="none" stroke="#AAAAAA" stroke-width="1.1532" stroke-miterlimit="10" stroke-dasharray="2.8773,2.8773" x1="204.572" y1="100" x2="300.963" y2="100"/>
			<line fill="none" stroke="#AAAAAA" stroke-width="1.1532" stroke-miterlimit="10" x1="302.402" y1="100" x2="303.879" y2="100"/>
		</g>
	</g>
	<g>
		<g>

				<line fill="none" stroke="#AAAAAA" stroke-width="1.2945" stroke-miterlimit="10" x1="200" y1="100.128" x2="200.005" y2="101.628"/>

				<line fill="none" stroke="#AAAAAA" stroke-width="1.2945" stroke-miterlimit="10" stroke-dasharray="2.9679,2.9679" x1="200.015" y1="104.596" x2="200.424" y2="227.763"/>

				<line fill="none" stroke="#AAAAAA" stroke-width="1.2945" stroke-miterlimit="10" x1="200.429" y1="229.247" x2="200.434" y2="230.747"/>
		</g>
	</g>
</g>
<g>
	<g>
		<g id="tree_2_">
			<path id="bark_2_" fill="#A27729" d="M397.004,230.629c0,0,4.18-27.65,1.73-35.82l-18.551-25.029l3.01-2.74l17.451,19.871
				l1.91-37.601h4.439l1.83,24.531l15.26-16.35l3.27,4.359l-16.07,19.34c0,0-2.719,0-1.09,19.34
				c1.631,19.34,3.002,29.699,3.002,29.699L397.004,230.629z"/>
			<g id="leaves_2_">
				<path fill="#8CC63F" d="M402.645,144.19c0,0-14.92,4.339-23.52-14.051c0,0,19.398-7.979,24.369,11.9c0,0-9.68-3.57-13.07-6.73
					C390.424,135.32,397.494,143.11,402.645,144.19z"/>
				<path fill="#8CC63F" d="M379.744,166.029c0,0-15.939-1.51-17.199-22.39c0,0,21.619-0.27,18.83,20.659c0,0-7.922-7.1-9.971-11.41
					C371.404,152.889,375.225,163.039,379.744,166.029z"/>
				<path fill="#8CC63F" d="M407.305,143.67c0,0,1.709-18.09,25.4-19.51c0,0,0.309,24.53-23.441,21.36c0,0,8.061-8.98,12.951-11.31
					C422.205,134.21,410.693,138.54,407.305,143.67z"/>
				<path fill="#8CC63F" d="M428.385,161.229c0,0,12.58-13.83,32.959-0.379c0,0-14.889,20.379-32.479,3.109
					c0,0,12.18-2.42,17.639-1.32C446.494,162.648,434.334,159.1,428.385,161.229z"/>
				<path fill="#8CC63F" d="M425.885,157.84c0,0-6.221-14.46,11.189-25.38c0,0,10.43,18.509-8.93,25.97
					c0,0,2.391-10.169,5.129-13.97C433.285,144.45,426.334,152.529,425.885,157.84z"/>
				<path fill="#8CC63F" d="M404.184,134.69c0,0-13.709-14.16,1.811-34.69c0,0,20.439,17.021,1.09,34.38c0,0-1.73-12.97-0.209-18.64
					C406.885,115.74,402.344,128.29,404.184,134.69z"/>
				<path fill="#8CC63F" d="M377.574,173.17c0,0-10.131,11.6-27.141,0.85c0,0,11.93-17.041,26.711-3.1c0,0-9.99,2.189-14.51,1.379
					C362.625,172.299,372.693,175.02,377.574,173.17z"/>
				<path fill="#8CC63F" d="M381.764,178.709c0,0,2.189,15.25-17.049,21.141c0,0-5.141-20.15,15.068-22.27
					c0,0-4.85,9.01-8.42,11.898C371.363,189.479,379.984,183.609,381.764,178.709z"/>
				<path fill="#8CC63F" d="M384.924,166.629c0,0-5.359-11.6,8.551-20.849c0,0,8.859,14.8-6.701,21.279
					c0,0,1.721-8.309,3.871-11.449C390.645,155.6,385.174,162.309,384.924,166.629z"/>
			</g>
		</g>
	</g>
	<g>
		<g>
			<line fill="none" stroke="#AAAAAA" stroke-width="1.1532" stroke-miterlimit="10" x1="350.217" y1="100" x2="351.693" y2="100"/>

				<line fill="none" stroke="#AAAAAA" stroke-width="1.1532" stroke-miterlimit="10" stroke-dasharray="2.8774,2.8774" x1="354.571" y1="100" x2="450.963" y2="100"/>
			<line fill="none" stroke="#AAAAAA" stroke-width="1.1532" stroke-miterlimit="10" x1="452.402" y1="100" x2="453.879" y2="100"/>
		</g>
	</g>
	<g>
		<g>

				<line fill="none" stroke="#AAAAAA" stroke-width="1.2945" stroke-miterlimit="10" x1="350" y1="100.128" x2="350.005" y2="101.628"/>

				<line fill="none" stroke="#AAAAAA" stroke-width="1.2945" stroke-miterlimit="10" stroke-dasharray="2.9679,2.9679" x1="350.015" y1="104.596" x2="350.424" y2="227.762"/>

				<line fill="none" stroke="#AAAAAA" stroke-width="1.2945" stroke-miterlimit="10" x1="350.429" y1="229.246" x2="350.434" y2="230.746"/>
		</g>
	</g>
</g>
</svg>
