<svg xmlns="http://www.w3.org/2000/svg" viewBox="0 0 225 55" enable-background="new 0 0 45 55"><view viewBox="0 0 45 55"/><view viewBox="45 0 45 55"/><view viewBox="90 0 45 55"/><view viewBox="135 0 45 55"/><view viewBox="180 0 45 55"/><g><path fill="#F29E9F" d="M32.44 43.21c.93.79 2.47.94 3.57.43.65-.3 2.23-1.62.8-2.03-.77-.22-1.51.29-1.42 1.09.12 1.13 1.28 1.68 2.29 1.63.36-.02 1.16-.59.43-.55-.88.05-1.75-.72-1.65-1.65l.03-.1c-.5 0-.56.12-.17.36.13.3-.5.73-.67.84-.62.4-1.69.01-2.2-.42-.27-.23-1.27.19-1.01.4zM4.03 34.99s1.13-7.73 5.48-7.73h5.82s-2 7.73-6.35 7.73H4.03z"/><path fill="#D76C79" d="M6.03 33.62s.73-4.99 3.54-4.99h3.76s-1.29 4.99-4.1 4.99h-3.2z"/><path fill="#F29E9F" d="M40.9 34.99s-1.12-7.73-5.48-7.73H29.6s2 7.73 6.35 7.73h4.95z"/><path fill="#D76C79" d="M38.89 33.62s-.73-4.99-3.54-4.99H31.6s1.29 4.99 4.1 4.99h3.19z"/><path fill="#F29E9F" d="M34.02 40.95v-.03c-.02-.17-.05-.37-.09-.59-.04-.26-.1-.52-.17-.77-.01-.04-.02-.09-.04-.13-.04-.14-.07-.28-.12-.41-.01-.02-.01-.05-.02-.07v.01-.01c.36-.83.56-1.72.56-2.64 0-1.72-.68-3.32-1.85-4.66.05-.3.09-.6.09-.91 0-4.01-4.44-7.27-9.91-7.27s-9.91 3.25-9.91 7.27c0 .31.03.61.09.91-1.16 1.35-1.85 2.95-1.85 4.66 0 .92.2 1.81.56 2.64-.22.64-.38 1.31-.45 2-.03.29-.05.58-.05.88 0 5.54 5.2 10.04 11.61 10.04.6 0 1.18-.05 1.75-.13v1.55h3.83v-2.66c3.59-1.71 6.03-5.01 6.03-8.8-.01-.14-.01-.44-.06-.88z"/><path fill="#D76C79" d="M33.58 38.95c-1.51 3.49-5.91 6.02-11.11 6.02v-21.5c-5.47 0-9.91 3.25-9.91 7.27 0 .31.03.61.09.91-1.16 1.35-1.85 2.95-1.85 4.66 0 .92.2 1.81.56 2.64-.22.64-.38 1.31-.45 2-.03.29-.05.58-.05.88 0 3.8 2.44 7.1 6.03 8.81v2.66h3.83v-1.55c.57.07 1.15.13 1.75.13V47c.66 0 1.31-.04 1.95-.12 4.28-.54 7.72-2.97 9.16-7.93z"/><circle fill="#3C3C3B" cx="15.53" cy="33.01" r="1.21"/><circle fill="#3C3C3B" cx="29.4" cy="33.01" r="1.21"/><circle fill="#fff" cx="15.91" cy="32.69" r=".46"/><circle fill="#fff" cx="29.86" cy="32.69" r=".46"/><path fill="#F29E9F" d="M22.46 33.81c-4.11 0-7.32 2.21-7.32 5.03 0 2.82 3.22 5.03 7.32 5.03 4.11 0 7.32-2.21 7.32-5.03.01-2.82-3.21-5.03-7.32-5.03z"/><ellipse fill="#D76C79" cx="22.46" cy="38.84" rx="6.15" ry="3.85"/><circle fill="#3C3C3B" cx="19.25" cy="38.25" r=".95"/><circle fill="#3C3C3B" cx="25.82" cy="38.25" r=".95"/><path fill="#3C3C3B" d="M26.09 53.97c.16 0 .29.13.29.29V55h3.08c0-1.84-1.49-3.34-3.34-3.34-1.84 0-3.33 1.49-3.33 3.34h3v-.73c0-.17.13-.3.3-.3zM18.76 53.97c.16 0 .29.13.29.29V55h3.08c0-1.84-1.49-3.34-3.34-3.34-1.84 0-3.34 1.49-3.34 3.34h3v-.73c.02-.17.15-.3.31-.3z"/></g><g transform="translate(45)"><path fill="#AF5B2B" d="M37.75 41.62c0 7.23-6.88 13.16-15.37 13.16-8.49 0-15.37-5.93-15.37-13.16s6.88-13.1 15.37-13.1c8.48 0 15.37 5.87 15.37 13.1z"/><path fill="#B6382F" d="M23.26 19.41c-.49 0-.88-.39-.88-.88V15.6c0-.49.39-.88.88-.88s.88.39.88.88v2.94c0 .48-.4.87-.88.87zM24.82 20.29c-.49 0-.88-.39-.88-.88v-2.94c0-.49.39-.88.88-.88s.88.39.88.88v2.94c0 .49-.39.88-.88.88z"/><path fill="#F6E9E5" d="M34.2 35.96l-11.69-2.08-11.65 1.93C9.8 39 9.8 42.58 9.8 42.58 9.96 49.47 15.58 55 22.5 55c6.93 0 12.55-5.54 12.71-12.42.01 0 0-3.47-1.01-6.62z"/><path fill="#D3C5C1" d="M10.86 35.82C9.8 39.01 9.8 42.59 9.8 42.59 9.96 49.47 15.58 55 22.5 55V41.73l.01-7.84-11.65 1.93z"/><path fill="#C07C61" d="M34.2 35.96c-.28-.86-.62-1.7-1.07-2.44-.54-.88-.91-1.85-1.18-2.79-.46-1.62-.6-3.17-.64-4.1v-.11c0-.16-.02-.32-.02-.47v-.31l-.01.02c-.39-4.51-4.16-8.05-8.77-8.05-4.6 0-8.37 3.53-8.77 8.03v-.01.07c-.02.24-.04.47-.04.71 0 .07.01.15.01.22-.05.89-.18 2.27-.57 3.73-.27 1.03-.67 2.09-1.25 3.04-.43.69-.76 1.48-1.03 2.3 1 .59 2.31.56 3.29-.2.1-.08.19-.16.28-.24-.05.08-.11.15-.16.24-.82 1.4-.35 3.2 1.05 4.02 1.4.82 3.2.35 4.02-1.04.04-.08.08-.15.12-.23-.02.12-.03.24-.03.36-.05 1.62 1.22 2.98 2.84 3.02h.09c.06 0 .1-.01.16-.01 1.51-.08 2.73-1.29 2.78-2.83.01-.12 0-.24-.01-.36.04.09.08.17.13.25.8 1.42 2.59 1.91 4 1.12 1.42-.8 1.91-2.59 1.12-4-.04-.07-.08-.14-.13-.2.03.03.07.06.11.09 1.03.95 2.58.99 3.68.17z"/><path fill="#AF5B2B" d="M14.14 35.62c.1-.08.19-.16.28-.24-.05.08-.11.15-.16.24-.82 1.4-.35 3.2 1.05 4.02 1.4.82 3.2.35 4.02-1.04.04-.08.08-.15.12-.23-.02.12-.03.24-.03.36-.05 1.62 1.22 2.98 2.84 3.02h.09c.06 0 .1-.01.16-.01V17.72c-4.6 0-8.37 3.53-8.77 8.03v-.01.07c-.02.24-.04.47-.04.71 0 .07.01.15.01.22-.05.89-.18 2.27-.57 3.73-.27 1.03-.67 2.09-1.25 3.04-.43.69-.76 1.48-1.03 2.3 1 .6 2.3.57 3.28-.19z"/><path fill="#EA575B" d="M20.22 13.4c.6.48.99.98 1.35 1.4.18.22.31.34.49.54.18.22.39.48.55.78.34.6.55 1.32.54 2.03-.02.71-.22 1.42-.74 2-.46-.62-.77-1.12-1.06-1.58-.29-.46-.54-.85-.79-1.3-.13-.23-.25-.46-.39-.75-.15-.3-.3-.72-.33-1.06-.06-.7.03-1.37.38-2.06zM25.68 32.75s0-.01 0 0c0-1.96-1.77-3.55-3.23-3.55s-3.23 1.59-3.23 3.54c0 .78-.06 2.84 1.42 2.84.44 0 .82-.2 1.08-.51.24.03.49.04.73.04s.48-.01.73-.04c.26.31.65.51 1.08.51 1.48 0 1.42-2.05 1.42-2.83z"/><path fill="#D3C5C1" d="M18.9 22.75c-2.16 0-3.92 1.67-3.92 3.72 0 2.06 1.75 3.72 3.92 3.72 1.62 0 3.01.23 3.61-1.09V25c-.6-1.31-1.99-2.25-3.61-2.25z"/><path fill="#F6E9E5" d="M26.12 30.2c2.16 0 3.92-1.67 3.92-3.72 0-2.06-1.75-3.72-3.92-3.72-1.62 0-3.02.94-3.61 2.27 0 0 0-.01-.01-.01v4.1s0-.01.01-.01c.59 1.33 1.99 1.09 3.61 1.09z"/><path fill="#F39E2B" d="M21.82 29.29l-.95.63c-.38.25-.5.78-.27 1.17l1.49 2.5c.12.2.27.29.43.29V29.1c-.26.01-.51.07-.7.19z"/><path fill="#FBDD58" d="M22.93 33.59l1.49-2.5c.23-.39.11-.92-.27-1.17l-.95-.63c-.19-.13-.44-.19-.69-.19v4.78c.15 0 .31-.09.42-.29z"/><path fill="#4E1412" d="M18.32 25.22c-.25 0-.49.08-.68.2-.04-.03-.1-.06-.14-.1l-.48-.56c-.04.26-.02.53.07.8.04.1.06.22.13.31-.11.19-.17.4-.17.63 0 .7.57 1.27 1.27 1.27.7 0 1.27-.57 1.27-1.27 0-.72-.57-1.28-1.27-1.28zM27.6 25.73l.06-.18c.09-.27.1-.54.07-.8l-.06-.01c-.13.22-.27.42-.42.57-.02.02-.05.04-.07.06-.18-.1-.38-.16-.6-.16-.7 0-1.27.57-1.27 1.27 0 .7.57 1.27 1.27 1.27.7 0 1.27-.57 1.27-1.27 0-.28-.09-.54-.25-.75z"/><circle fill="#fff" cx="18.84" cy="26.13" r=".38"/><circle fill="#fff" cx="27.14" cy="26.13" r=".38"/></g><g transform="translate(90)"><path fill="#3C3C3B" d="M26.47 28.95c2.05-8.32 8.82-11.23 8.82-11.23s4.84 12.62-4.41 15.63l-4.41-4.4z"/><path fill="#AF5B2B" d="M27.46 29.71c2.64-7.9 6.87-9.28 6.87-9.28s3.66 7.54-4.38 12.15l-2.49-2.87z"/><path fill="#3C3C3B" d="M18.52 28.95C16.46 20.63 9.7 17.72 9.7 17.72s-4.84 12.62 4.41 15.63l4.41-4.4z"/><path fill="#EA8232" d="M34.8 40.41c-.26-.19-.51-.4-.73-.62-.59-.59-1.06-1.3-1.32-2.1-.14-.45-.06-.94-.1-1.41-.03-.39-.07-.77-.14-1.16-.28-1.54-.93-3.01-1.87-4.26-1.91-2.54-4.96-4.06-8.14-4.06l-3.66 12.12 3.66 6.25 1.43 6.77V55h3.99v-5.05c0-.07.18-.2.23-.25.15-.16.3-.32.44-.48.28-.34.53-.69.76-1.07.47-.8.8-1.68.96-2.59.05-.26.08-.53.1-.79.02-.21.43-.31.62-.4L35.8 41c-.32-.22-.68-.36-1-.59z"/><path fill="#AF5B2B" d="M13.96 44.36c.19.09.6.19.62.4.02.27.06.53.1.79.17.91.49 1.79.96 2.59.22.38.47.73.76 1.07.14.17.29.33.44.48.05.05.23.17.23.25V55h3.99v-3.07l1.43-6.77V26.79c-3.18 0-6.22 1.52-8.14 4.06-.94 1.25-1.59 2.72-1.87 4.26-.07.38-.12.77-.14 1.16-.03.47.05.96-.1 1.41-.26.8-.72 1.51-1.32 2.1-.23.23-.47.43-.73.62-.32.23-.68.36-1 .59l4.77 3.37z"/><path fill="#D5D2B1" d="M17.72 45.81c.09.58.17 1.14.26 1.67.46 2.71 1.18 4.59 4.52 4.59 3.44 0 4.13-1.9 4.58-4.64.08-.51.16-1.06.24-1.62h-9.6z"/><path fill="#F6F3CF" d="M27.07 47.42c-1.35.7-2.91 1.1-4.58 1.11v3.54c3.45-.01 4.14-1.91 4.58-4.65z"/><path fill="#AF5B2B" d="M17.53 29.71c-2.64-7.9-6.87-9.28-6.87-9.28S7 27.98 15.03 32.58l2.5-2.87zM17.52 48.84c-2.7 2.22-6.24.73-8.33-1.58-.16-.18-.35-.34-.55-.5-.89-.04-1.85.06-2.64.5 0 0 1.42 1.07 1.96 2.24 0 0-1.59.32-2.84-.46 0 0 .16 1.88 1.49 3.5.42.13.86.24 1.35.34 8.19 1.61 10.55-3.04 10.55-3.04l-.99-1z"/><path fill="#D5D2B1" d="M7.96 49.5C7.42 48.32 6 47.25 6 47.25c.79-.44 1.76-.54 2.64-.5-2.31-1.83-6.61-1.9-6.61-1.9S.02 50.51 6.6 52.53c-1.33-1.62-1.49-3.5-1.49-3.5 1.26.79 2.85.47 2.85.47z"/><path fill="#AF5B2B" d="M27.31 45.8c-.08.56-.16 1.11-.24 1.62 1.28-.66 2.36-1.59 3.17-2.7l-2.93 1.08z"/><path fill="#3C3C3B" d="M25.27 46.35c-.26-.64-.74-1.16-1.34-1.49-.43-.24-.91-.38-1.43-.39h-.02c-.53 0-1.02.15-1.45.39-.6.33-1.08.85-1.34 1.49.53.27 1.09.57 1.66.9.37.22.74.44 1.13.69.39-.25.76-.47 1.13-.69.58-.34 1.13-.64 1.66-.9z"/><path fill="#D5D2B1" d="M19.72 46.35c.26-.64.74-1.16 1.34-1.49-.49-.8-2.14-2.93-5.85-4.17-2.74-.91-5.09-.34-6 .32 0-.01 2.76 3.52 10.51 5.34z"/><path fill="#3C3C3B" d="M22.34 55c0-1.8-1.46-3.26-3.26-3.26S15.82 53.2 15.82 55h6.52zM29.18 55c0-1.8-1.46-3.26-3.26-3.26-1.8 0-3.26 1.46-3.26 3.26h6.52z"/><path fill="#F39E2B" d="M14.58 35.75s4.36-1.26 4.26 3.17c0 0-4.26 1.54-4.26-3.17M25.98 38.92s4.26 1.55 4.26-3.17c0 0-4.36-1.26-4.26 3.17"/><circle fill="#fff" cx="17.25" cy="36.91" r=".79"/><circle fill="#fff" cx="28.69" cy="36.91" r=".79"/><path fill="#F6F3CF" d="M25.27 46.35c-.26-.64-.74-1.16-1.34-1.49.49-.8 2.14-2.93 5.85-4.17 2.74-.91 5.09-.34 6 .32 0-.01-2.76 3.52-10.51 5.34z"/></g><g transform="translate(135)"><path fill="#F6E9E5" d="M28.98 32.54c1.51-1.99 7.93-6.54 5.91-15-2.02-8.47-5.68-12.47-8.2-3.76-2.51 8.71.57 17.21.57 17.21l1.72 1.55z"/><path fill="#F29E9F" d="M30.49 12.25s0 1.76-.47 3.98c-.47 2.22 1.8 7.42-.48 12.96.01 0 8.5-6.1.95-16.94z"/><path fill="#F6E9E5" d="M16.73 32.54c-1.51-1.99-7.93-6.54-5.91-15 2.02-8.47 5.68-12.47 8.2-3.76 2.51 8.71-.57 17.21-.57 17.21l-1.72 1.55z"/><path fill="#F29E9F" d="M15.22 12.25s0 1.76.47 3.98c.47 2.22-1.8 7.42.48 12.96-.01 0-8.49-6.1-.95-16.94z"/><path fill="#D3C5C1" d="M14.02 44.66c0 4.2 3.78 7.6 8.45 7.6V37.05c-4.67 0-8.45 3.41-8.45 7.61z"/><path fill="#F6E9E5" d="M30.91 44.66c0-4.2-3.78-7.6-8.45-7.6v15.21c4.67-.01 8.45-3.41 8.45-7.61z"/><path fill="#D3C5C1" d="M22.43 33.41c-5.4 0-9.78 3.4-9.78 7.6 0 4.2 4.38 8.39 9.78 8.39 5.4 0 9.79-4.19 9.79-8.39s-4.39-7.6-9.79-7.6zM17.25 50.4h3.82v3.33h-3.82zM22.15 55c0-1.65-1.34-2.98-2.98-2.98-1.65 0-2.98 1.34-2.98 2.98h5.96z"/><path fill="#F6E9E5" d="M23.86 50.4h3.82v3.33h-3.82zM28.75 55c0-1.65-1.34-2.98-2.98-2.98-1.65 0-2.99 1.34-2.99 2.98h5.97zM35.67 42.43c-1.37-.69-2.15-5.77-2.15-5.77-.78-5.28-3.23-8.51-6.16-9.59-.14-.05-.27-.1-.4-.16l-.09-.03c-1.26-.48-2.78-.76-4.41-.76s-3.15.28-4.41.76c-.03.01-.06.02-.09.04-.13.05-.26.11-.39.16-2.93 1.08-5.38 4.31-6.16 9.59 0 0-.78 5.09-2.15 5.77 0 0 2.42.73 4.76 2.23 0 0 1.26.92 1.87 1.39 1.35 1.03 3.6 1.66 6.57 1.66h.03c3.24 0 5.25-.63 6.6-1.66.62-.47 1.21-.98 1.84-1.39v-.02c2.34-1.5 4.74-2.22 4.74-2.22zM22.46 39.1h-.02.02c.01 0 .01 0 0 0 .01 0 .01 0 0 0z"/><path fill="#D3C5C1" d="M18.05 26.87c-.03.01-.06.02-.09.04-.13.05-.26.11-.39.16-2.93 1.08-5.38 4.31-6.16 9.59 0 0-.78 5.09-2.15 5.77 0 0 2.42.73 4.76 2.23 0 0 1.26.92 1.87 1.39 1.35 1.03 3.6 1.66 6.57 1.66V39.1h-.02.02V26.11c-1.63 0-3.14.28-4.41.76z"/><circle fill="#B6382F" cx="16.15" cy="35.92" r="1.61"/><circle fill="#B6382F" cx="28.77" cy="35.92" r="1.61"/><circle fill="#fff" cx="16.83" cy="35.42" r=".5"/><circle fill="#fff" cx="29.55" cy="35.42" r=".5"/><path fill="#F29E9F" d="M24.7 39.8l-2.27.26-2.27-.26c-.21-.03-.41.13-.43.34-.02.21.13.41.34.43l1.94.22v2.85c-.13.15-.43.44-.73.28-.19-.1-.43-.03-.53.16-.1.19-.03.43.16.53.19.1.38.15.56.15.38 0 .71-.2.96-.42.24.22.57.42.95.42.18 0 .37-.04.56-.14.19-.1.27-.34.17-.53s-.34-.27-.53-.17c-.32.17-.61-.12-.73-.27V40.8l1.94-.22c.21-.02.37-.22.34-.43-.02-.22-.21-.38-.43-.35z"/></g><g transform="translate(180)"><path fill="#D3C5C1" d="M16.88 48h3.83v5.28h-3.83z"/><path fill="#F6E9E5" d="M24.21 48h3.83v5.28h-3.83z"/><path fill="#3C3C3B" d="M18.76 53.97c.16 0 .29.13.29.29V55h3.08c0-1.84-1.49-3.33-3.34-3.33-1.84 0-3.34 1.49-3.34 3.33h3v-.73c.02-.17.15-.3.31-.3zM26.09 53.97c.16 0 .29.13.29.29V55h3.08c0-1.84-1.49-3.33-3.34-3.33-1.84 0-3.34 1.49-3.34 3.33h3v-.73c.01-.17.14-.3.31-.3z"/><path fill="#D3C5C1" d="M34.19 38.11c-1.5-5.16-6.18-7.97-11.73-7.97-5.55 0-10.24 2.82-11.73 7.97-.32 1.12-.51 2.34-.51 3.68 0 5.14 5.48 9.31 12.24 9.31 3.32 0 6.33-1.01 8.54-2.65 2.19-1.62 3.57-3.86 3.68-6.35.01-.11.02-.21.02-.32 0-1.33-.18-2.55-.51-3.67z"/><path fill="#F6E9E5" d="M28.58 45.37c.25-1.11 1.62-1.37 2.07-2.34.45-.97 3.11-2.13 4.02-.92.01-.11.02-.21.02-.32 0-1.33-.18-2.56-.51-3.68-1.5 3.86-6.18 6.67-11.73 6.67v6.31c3.32 0 6.33-1.01 8.54-2.65-.63-.1-1.26-.37-1.82-.93.01 0-.84-1.04-.59-2.14z"/><path fill="#3C3C3B" d="M34.68 42.1c-.92-1.21-3.58-.04-4.02.92-.45.97-1.82 1.24-2.07 2.34-.25 1.11.6 2.15.6 2.15.55.56 1.19.83 1.82.93 2.18-1.61 3.56-3.85 3.67-6.34zM15.94 45.57s-.79-.84-.29-1.69c.51-.84 1.86.29 1.86.29s1.3.85 1.65.95c1.38.42 1.17 1.8-.48 2.46-1.17.48-2.74-2.01-2.74-2.01zM4.66 17s1.09 7.46 5.29 7.46h5.62S13.64 17 9.44 17H4.66z"/><path fill="#D76C79" d="M6.6 18.32s.7 4.82 3.42 4.82h3.63s-1.25-4.82-3.96-4.82H6.6z"/><path fill="#3C3C3B" d="M40.26 17s-1.09 7.46-5.29 7.46h-5.62S31.29 17 35.49 17h4.77z"/><path fill="#D76C79" d="M38.33 18.32s-.7 4.82-3.42 4.82h-3.63s1.25-4.82 3.96-4.82h3.09z"/><path fill="#3C3C3B" d="M24.5 27c-.19-6.53 3.95-9.27 4.35-9.51 1.61 1.36 2.71 3.18 3.01 5.13l.03.14s.41 1.81.58 2.72c.35 1.89.79 3.32.98 5.05-.09.03-8.75 3.29-8.95-3.53z"/><path fill="#F6E9E5" d="M33.56 31.82c-.01-.46-.05-.88-.1-1.3-.09.04-8.76 3.29-8.95-3.53-.19-6.53 3.95-9.27 4.35-9.51-1.7-1.44-3.96-2.36-6.45-2.36l-3.49 10.13 3.49 17.1v.03c6.49 0 11.17-4.51 11.17-10.08-.01-.16-.02-.32-.02-.48z"/><path fill="#D3C5C1" d="M16.01 17.49c.39.25 4.54 2.98 4.35 9.51-.19 6.82-8.86 3.56-8.95 3.53-.05.41-.08.84-.1 1.3 0 .16-.01.32-.01.49 0 5.57 4.68 10.08 11.17 10.08V15.13c-2.5 0-4.76.92-6.46 2.36z"/><path fill="#3C3C3B" d="M20.36 27c.19-6.53-3.95-9.27-4.35-9.51-1.61 1.36-2.71 3.18-3.01 5.13l-.03.14s-.41 1.81-.58 2.72c-.35 1.89-.79 3.32-.98 5.05.09.03 8.75 3.29 8.95-3.53z"/><ellipse fill="#F29E9F" cx="22.46" cy="37.04" rx="9.2" ry="6.02"/><circle fill="#D76C79" cx="16.98" cy="36.11" r="1.32"/><circle fill="#D76C79" cx="27.98" cy="36.11" r="1.32"/><circle fill="#F5F0F2" cx="28.13" cy="25.15" r="2.09"/><circle fill="#3C3C3B" cx="28.13" cy="25.15" r="1.47"/><circle fill="#D3C5C1" cx="17.44" cy="25.15" r="2.09"/><circle fill="#3C3C3B" cx="17.44" cy="25.15" r="1.47"/><circle fill="#fff" cx="17.99" cy="24.71" r=".54"/><circle fill="#fff" cx="28.58" cy="24.71" r=".54"/></g></svg>