<svg style="position: absolute; width: 0; height: 0;" width="0" height="0" version="1.1" xmlns="http://www.w3.org/2000/svg" xmlns:xlink="http://www.w3.org/1999/xlink">
<defs>
<symbol id="icon-lamp" viewBox="0 0 57 64">
<title>lamp</title>
<path fill="#6bc9ca" class="path1 fill-color1" d="M24.459 55.575c0.634 0.136 1.268 0.226 1.902 0.272 1.314 0.136 2.627 0.136 3.895 0 0.634-0.045 1.268-0.181 1.902-0.272 0.453-0.091 0.951-0.226 1.404-0.362v-3.941c-1.676 0.453-3.442 0.679-5.254 0.679s-3.578-0.226-5.254-0.679v3.941c0.453 0.136 0.906 0.272 1.404 0.362z"></path>
<path fill="#6bc9ca" class="path2 fill-color1" d="M32.43 56.753c-0.679 0.136-1.359 0.226-2.038 0.317s-1.404 0.091-2.084 0.091c-0.679 0-1.404-0.045-2.084-0.091-0.679-0.091-1.359-0.181-2.038-0.317-0.408-0.091-0.77-0.181-1.132-0.272v0.498c0 2.355 1.631 4.303 3.805 4.801-0.045 0.136-0.045 0.226-0.045 0.362 0 0.815 0.679 1.495 1.495 1.495s1.495-0.679 1.495-1.495c0-0.136 0-0.272-0.045-0.362 2.174-0.498 3.805-2.446 3.805-4.801v-0.498c-0.362 0.136-0.77 0.226-1.132 0.272z"></path>
<path fill="#f05550" class="path3 fill-color2" d="M20.246 31.117c-1.631 0-2.944 1.314-2.944 2.944s1.314 2.944 2.944 2.944h2.944v-2.944c0.045-1.631-1.314-2.944-2.944-2.944z"></path>
<path fill="#f05550" class="path4 fill-color2" d="M36.371 31.117c-1.631 0-2.944 1.314-2.944 2.944v2.944h2.944c1.631 0 2.944-1.313 2.944-2.944s-1.313-2.944-2.944-2.944z"></path>
<path fill="#6bc9ca" class="path5 fill-color1" d="M28.309 7.428c-0.317 0-0.589-0.272-0.589-0.589v-5.39c0-0.317 0.272-0.589 0.589-0.589s0.589 0.272 0.589 0.589v5.39c0 0.317-0.272 0.589-0.589 0.589z"></path>
<path fill="#6bc9ca" class="path6 fill-color1" d="M44.569 14.358c-0.136 0-0.317-0.045-0.408-0.181-0.226-0.226-0.226-0.634 0-0.861l3.805-3.805c0.226-0.226 0.634-0.226 0.861 0s0.226 0.634 0 0.861l-3.805 3.805c-0.136 0.136-0.272 0.181-0.453 0.181z"></path>
<path fill="#6bc9ca" class="path7 fill-color1" d="M12.048 14.358c-0.136 0-0.317-0.045-0.408-0.181l-3.805-3.805c-0.226-0.226-0.226-0.634 0-0.861s0.634-0.226 0.861 0l3.805 3.805c0.226 0.226 0.226 0.634 0 0.861-0.136 0.136-0.317 0.181-0.453 0.181z"></path>
<path fill="#f05550" class="path8 fill-color2" d="M36.371 38.228h-2.944v11.822c0 0 0 0 0 0 8.108-2.219 14.041-9.648 14.041-18.48 0-10.553-8.606-19.159-19.159-19.159s-19.159 8.606-19.159 19.159c0 10.553 8.606 19.159 19.159 19.159 1.359 0 2.672-0.136 3.986-0.408-0.045-0.091-0.091-0.181-0.091-0.272v-11.822h-7.791v6.839c0 0.317-0.272 0.589-0.589 0.589s-0.589-0.272-0.589-0.589v-6.839h-2.944c-2.31 0-4.167-1.857-4.167-4.167s1.857-4.167 4.167-4.167 4.167 1.857 4.167 4.167v2.944h7.791v-2.944c0-2.31 1.857-4.167 4.167-4.167s4.167 1.857 4.167 4.167c-0.045 2.31-1.902 4.167-4.212 4.167zM28.309 15.943c-8.651 0-15.672 7.021-15.672 15.672 0 0.317-0.272 0.589-0.589 0.589s-0.589-0.272-0.589-0.589c0-9.331 7.564-16.895 16.895-16.895 0.317 0 0.589 0.272 0.589 0.589s-0.317 0.634-0.634 0.634z"></path>
</symbol>
<symbol id="icon-globe" viewBox="0 0 57 64">
<title>globe</title>
<path fill="#6bc9ca" class="path1 fill-color1" d="M26.995 7.021c-0.362 0.679-0.589 1.178-0.136 1.676 0.181 0.226 0.181 0.498 0.045 0.725s-0.408 0.317-0.634 0.272c-0.453-0.045-3.216 0.498-4.031 1.766-0.091 0.181-0.453 0.77 0.226 1.766 0 0 0 0.045 0.045 0.045 0 0 0 0.045 0.045 0.045 0.045 0.091 0.136 0.226 0.181 0.317 0.589 0.996 1.087 2.219-0.544 3.759 0.272 0.136 0.453 0.362 0.589 0.589 0.362 0.77-0.091 1.585-0.498 2.355-0.272 0.453-0.634 1.132-0.498 1.404 0.045 0.091 0.136 0.181 0.317 0.226 0.679-0.77 2.491-2.718 5.254-3.805-1.585-0.861-1.721-1.404-1.766-1.631-0.091-0.272 0-0.543 0.181-0.77 0.951-1.268 2.174-0.77 2.989-0.408 0.453 0.181 0.906 0.408 1.223 0.272 0.226-0.091 0.453-0.408 0.679-0.906 0.091-0.272 0.408-0.408 0.679-0.362s0.498 0.272 0.498 0.589c0.045 0.589 0.272 0.725 0.498 0.725 0.544 0.091 1.223-0.272 1.404-0.679 0.091-0.226 0.272-0.362 0.544-0.362 0.226 0 0.453 0.091 0.544 0.317 0.544 0.951 0.634 1.812 0.362 2.627-0.589 1.676-2.763 2.536-4.892 3.352-0.815 0.317-1.585 0.634-2.219 0.951-1.449 0.77-6.25 3.578-6.658 7.020-0.181 1.54 0.634 3.080 2.355 4.575 2.401 2.038 3.805 0.951 5.616-0.408 1.359-1.042 2.944-2.265 4.982-1.766 1.404 0.362 2.355 1.812 3.397 3.306 0.679 1.042 1.359 2.084 2.174 2.763 2.265 1.902 3.986 2.355 5.118 1.313 2.989-2.627 2.129-13.18 0.408-16.849-1.948 1.404-3.85 1.314-5.118 0.951-2.355-0.679-4.076-2.582-4.529-4.031-0.045-0.272 0-0.498 0.136-0.679 0.362-0.362 0.951-0.362 2.491-0.181 0.272 0.045 0.589 0.045 0.77 0.091 0.362-0.544 0.725-0.861 1.178-0.951 0.77-0.136 1.313 0.408 1.857 0.906 0.226 0.181 0.589 0.544 0.725 0.544 0 0 0.453-0.181 0.951-2.446 0-0.045 0-0.091 0-0.136-0.408-0.589-2.672-0.861-3.623-0.951-0.634-0.091-0.996-0.136-1.223-0.181-0.181-0.045-0.362-0.226-0.408-0.453-0.045-0.181 0-0.408 0.136-0.543 0 0 0-0.045 0.045-0.045 0.136-0.136 0.362-0.226 0.544-0.181 1.585 0.317 2.627-0.634 3.578-1.404 0.317-0.317 0.725-0.634 1.087-0.815-3.759-3.306-8.515-5.209-13.588-5.299-0.181 0-0.362 0-0.544 0-0.815 0-1.631 0.045-2.446 0.136-0.226 0.317-0.362 0.589-0.498 0.861z"></path>
<path fill="#f05550" class="path2 fill-color2" d="M11.323 9.965c0.136-0.136 0.226-0.226 0.317-0.362 0.181-0.181 0.362-0.317 0.498-0.498l-1.676-1.676c-0.226-0.226-0.634-0.226-0.861 0s-0.226 0.634 0 0.861l1.721 1.676z"></path>
<path fill="#f05550" class="path3 fill-color2" d="M48.057 45.022c-0.136 0.136-0.272 0.272-0.408 0.453-0.136 0.136-0.317 0.272-0.453 0.408l1.721 1.721c0.136 0.136 0.272 0.181 0.408 0.181s0.317-0.045 0.408-0.181c0.226-0.226 0.226-0.634 0-0.861l-1.676-1.721z"></path>
<path fill="#f05550" class="path4 fill-color2" d="M29.667 51.273c-0.091 0-0.181 0-0.272 0-6.386-0.091-12.411-2.627-16.895-7.202s-6.885-10.644-6.839-17.030c0.091-6.386 2.627-12.411 7.202-16.895 0.815-0.815 1.721-1.54 2.627-2.219 0.272-0.181 0.634-0.136 0.861 0.136 0.181 0.272 0.136 0.634-0.136 0.861-0.861 0.634-1.721 1.359-2.491 2.129-4.348 4.258-6.794 9.965-6.839 16.034-0.091 6.024 2.219 11.776 6.477 16.125s9.965 6.794 16.034 6.839c6.069 0.045 11.822-2.219 16.17-6.477 0.861-0.815 1.631-1.721 2.355-2.718 0.181-0.272 0.589-0.317 0.861-0.136s0.317 0.589 0.136 0.861c-0.77 0.996-1.585 1.948-2.491 2.853-4.529 4.439-10.463 6.839-16.759 6.839z"></path>
<path fill="#f05550" class="path5 fill-color2" d="M29.984 52.858c-2.038 0-3.759 1.359-4.303 3.216h8.651c-0.589-1.857-2.31-3.216-4.348-3.216z"></path>
<path fill="#f05550" class="path6 fill-color2" d="M38.953 57.297h-17.936c-0.453 0-0.815 0.362-0.815 0.815s0.362 0.815 0.815 0.815h17.936c0.453 0 0.815-0.362 0.815-0.815s-0.362-0.815-0.815-0.815z"></path>
<path fill="#6bc9ca" class="path7 fill-color1" d="M45.294 12.727c-0.091-0.091-0.136-0.136-0.226-0.226 0 0 0 0-0.045 0-0.272-0.272-0.453-0.226-1.449 0.634-0.362 0.317-0.77 0.679-1.223 0.996 1.132 0.226 1.993 0.543 2.446 1.132 0.226 0.317 0.317 0.679 0.226 1.087-0.498 2.129-1.042 3.080-1.812 3.306s-1.404-0.362-1.902-0.815c-0.226-0.226-0.679-0.634-0.815-0.589-0.045 0-0.226 0.136-0.453 0.589s-0.679 0.408-1.812 0.272c-0.317-0.045-0.77-0.091-1.132-0.091 0.589 1.042 1.902 2.219 3.442 2.627 1.132 0.317 2.853 0.362 4.575-1.178 0.136-0.136 0.317-0.181 0.498-0.136 0.181 0 0.317 0.136 0.408 0.272 2.219 3.352 3.397 15.762-0.272 19.023-0.544 0.453-1.223 0.861-2.174 0.861-1.132 0-2.627-0.544-4.529-2.129-0.951-0.815-1.721-1.948-2.401-3.035-0.861-1.313-1.721-2.582-2.672-2.808-1.495-0.362-2.718 0.544-3.986 1.54-1.766 1.359-3.986 3.080-7.111 0.362-2.038-1.766-2.989-3.669-2.763-5.616 0.408-3.895 5.209-6.885 7.292-7.972 0.679-0.362 1.495-0.679 2.355-0.996 1.766-0.679 3.805-1.495 4.212-2.627 0.091-0.226 0.091-0.498 0.045-0.77-0.544 0.408-1.313 0.589-1.993 0.498-0.408-0.091-0.77-0.272-0.996-0.544-0.181 0.181-0.408 0.362-0.634 0.453-0.77 0.317-1.495 0-2.129-0.272-0.815-0.317-1.132-0.408-1.404-0.136 0.272 0.272 0.996 0.77 2.355 1.359 0 0 0.045 0 0.045 0.045 0.226 0.091 0.362 0.362 0.317 0.589s-0.226 0.453-0.453 0.544c-3.895 0.951-6.296 4.122-6.296 4.167-0.136 0.181-0.408 0.272-0.634 0.226-0.77-0.181-1.268-0.544-1.495-1.042-0.362-0.815 0.136-1.676 0.544-2.446 0.226-0.408 0.589-1.042 0.498-1.223 0 0-0.091-0.181-0.815-0.317-0.226-0.045-0.453-0.226-0.498-0.453s0.045-0.498 0.226-0.634c1.948-1.404 1.54-2.084 1.087-2.899-0.091-0.136-0.136-0.272-0.226-0.362-0.996-1.495-0.634-2.582-0.136-3.261 0.861-1.178 2.808-1.857 4.122-2.038-0.181-0.861 0.226-1.631 0.498-2.129 0 0 0 0 0 0-1.495 0.272-2.989 0.679-4.393 1.268-1.359 1.359-2.582 3.080-3.759 4.756-1.449 2.084-2.718 3.895-4.031 4.62-0.091 0.091-0.272 0.136-0.408 0.136 0 0 0 0 0 0-0.136 0-0.272-0.045-0.408-0.181-0.272-0.181-0.453-0.408-0.543-0.725-0.226-0.77 0.317-1.631 0.861-2.491 0.045-0.045 0.091-0.136 0.136-0.226-3.171 3.714-4.937 8.379-5.073 13.316-0.091 2.989 0.498 5.933 1.585 8.651 0.045 0 0.045 0.045 0.091 0.045 1.857 1.902 6.251 4.484 8.742 4.756 0 0 0 0 0 0s0 0 0.045 0h0.136c3.759 0.453 4.167 3.352 4.439 5.481 0.091 0.815 0.226 1.631 0.498 2.174 7.066 2.038 14.992 0.362 20.699-5.073 4.167-3.941 6.522-9.285 6.658-14.992 0.091-5.798-2.038-11.233-5.979-15.355z"></path>
<path fill="#6bc9ca" class="path8 fill-color1" d="M22.149 46.064c-0.272-2.129-0.544-4.167-3.533-4.439h-0.136c-2.038-0.272-5.028-1.766-7.247-3.352 0.815 1.449 1.857 2.763 3.035 4.031 2.355 2.446 5.163 4.258 8.153 5.345-0.136-0.498-0.181-1.042-0.272-1.585z"></path>
<path fill="#6bc9ca" class="path9 fill-color1" d="M16.804 11.776c0.589-0.861 1.223-1.766 1.902-2.672-1.314 0.815-2.582 1.766-3.714 2.854 0 0-0.045 0.045-0.045 0.045 0.045 0.045 0.045 0.091 0.091 0.136 0.317 0.679-0.181 1.495-0.725 2.355-0.181 0.272-0.543 0.861-0.679 1.223 0.951-0.77 2.038-2.31 3.171-3.941z"></path>
</symbol>
<symbol id="icon-chemistry" viewBox="0 0 57 64">
<title>chemistry</title>
<path fill="#f05550" class="path1 fill-color2" d="M29.622 62.551c0.045 0 0.045 0 0.091 0.045-0.045 0-0.091-0.045-0.091-0.045z"></path>
<path fill="#f05550" class="path2 fill-color2" d="M30.030 62.687c0.045 0 0.091 0 0.091 0.045-0.045-0.045-0.045-0.045-0.091-0.045z"></path>
<path fill="#f05550" class="path3 fill-color2" d="M38.636 37.639v0 0z"></path>
<path fill="#f05550" class="path4 fill-color2" d="M33.064 62.007c0 0 0.045-0.045 0.045-0.045 0 0.045-0.045 0.045-0.045 0.045z"></path>
<path fill="#f05550" class="path5 fill-color2" d="M32.657 62.279c0.045 0 0.045-0.045 0.091-0.045-0.045 0.045-0.045 0.045-0.091 0.045z"></path>
<path fill="#f05550" class="path6 fill-color2" d="M30.528 62.777c0 0 0 0 0 0s0 0 0 0z"></path>
<path fill="#f05550" class="path7 fill-color2" d="M31.434 62.732c0 0 0 0 0 0s0 0 0 0z"></path>
<path fill="#f05550" class="path8 fill-color2" d="M29.169 62.324c0.045 0 0.045 0.045 0.091 0.045-0.045 0-0.091 0-0.091-0.045z"></path>
<path fill="#f05550" class="path9 fill-color2" d="M34.106 60.512c0-0.045 0-0.045 0.045-0.091 0 0.045 0 0.045-0.045 0.091z"></path>
<path fill="#f05550" class="path10 fill-color2" d="M33.699 61.373c0-0.045 0.045-0.045 0.045-0.091-0.045 0.045-0.045 0.045-0.045 0.091z"></path>
<path fill="#f05550" class="path11 fill-color2" d="M33.925 60.965c0 0 0-0.045 0 0 0-0.045 0 0 0 0z"></path>
<path fill="#f05550" class="path12 fill-color2" d="M33.381 61.735c0 0 0.045-0.045 0.045-0.045s-0.045 0-0.045 0.045z"></path>
<path fill="#f05550" class="path13 fill-color2" d="M28.762 62.052c0.045 0.045 0.045 0.045 0.091 0.091-0.045 0-0.045-0.045-0.091-0.091z"></path>
<path fill="#f05550" class="path14 fill-color2" d="M30.936 62.777c0.045 0 0.045 0 0.091 0 0 0-0.045 0-0.091 0z"></path>
<path fill="#f05550" class="path15 fill-color2" d="M32.294 62.505c0 0 0.045 0 0.045-0.045 0 0-0.045 0-0.045 0.045z"></path>
<path fill="#f05550" class="path16 fill-color2" d="M31.841 62.641c0.045 0 0.045 0 0.091-0.045-0.045 0.045-0.091 0.045-0.091 0.045z"></path>
<path fill="#f05550" class="path17 fill-color2" d="M31.706 37.141c-2.265 0-4.575 0.498-7.020 1.042-2.854 0.634-6.115 1.359-9.829 1.359-2.627 0-5.254-0.362-7.926-1.042 9.24 9.104 22.239 22.285 22.375 22.466 0.544 0.544 1.178 0.679 1.585 0.679 0.906 0 1.993-0.589 2.219-1.812 0.045-0.181 3.171-14.856 4.212-21.424-1.857-0.861-3.623-1.268-5.616-1.268zM22.013 46.698c-0.725 0-1.359-0.589-1.359-1.359 0-0.725 0.589-1.359 1.359-1.359 0.725 0 1.359 0.589 1.359 1.359s-0.589 1.359-1.359 1.359zM28.49 52.948c-0.906 0-1.585-0.725-1.585-1.585s0.725-1.585 1.585-1.585 1.585 0.725 1.585 1.585-0.679 1.585-1.585 1.585zM30.256 44.026c-1.042 0-1.902-0.861-1.902-1.902s0.861-1.902 1.902-1.902 1.902 0.861 1.902 1.902-0.861 1.902-1.902 1.902z"></path>
<path fill="#f05550" class="path18 fill-color2" d="M56.708 2.219c0 1.226-0.994 2.219-2.219 2.219s-2.219-0.994-2.219-2.219c0-1.226 0.994-2.219 2.219-2.219s2.219 0.994 2.219 2.219z"></path>
<path fill="#f05550" class="path19 fill-color2" d="M55.938 8.515c0 0.8-0.649 1.449-1.449 1.449s-1.449-0.649-1.449-1.449c0-0.8 0.649-1.449 1.449-1.449s1.449 0.649 1.449 1.449z"></path>
<path fill="#6bc9ca" class="path20 fill-color1" d="M55.575 16.759l-8.334-8.334c-0.226-0.226-0.634-0.226-0.861 0s-0.226 0.634 0 0.861l1.178 1.178c-0.045 0.045-0.091 0.045-0.136 0.091l-11.776 11.776-1.042 0.181-30.8 6.024c-1.721 0.317-3.080 1.585-3.578 3.216-0.498 1.676-0.045 3.442 1.178 4.665l26.18 26.18c0.906 0.906 2.038 1.359 3.306 1.359 2.265 0 4.167-1.54 4.62-3.805l6.024-30.845 0.181-1.042 2.808-2.808 8.923-8.878c0.045-0.045 0.091-0.091 0.091-0.136l1.178 1.178c0.136 0.136 0.272 0.181 0.408 0.181s0.317-0.045 0.408-0.181c0.272-0.226 0.272-0.634 0.045-0.861zM43.618 24.685l-3.035 3.035-0.272 1.404-6.024 30.845c-0.362 1.766-1.857 2.808-3.397 2.808-0.861 0-1.721-0.317-2.446-1.042l-26.225-26.134c-1.948-1.948-0.951-5.345 1.812-5.843l32.249-6.341 12.003-12.003 4.303 4.303-8.968 8.968z"></path>
</symbol>
</defs>
</svg>
