<?xml version="1.0" encoding="utf-8"?>
<!-- Generator: Adobe Illustrator 16.0.0, SVG Export Plug-In . SVG Version: 6.00 Build 0)  -->
<!DOCTYPE svg PUBLIC "-//W3C//DTD SVG 1.1//EN" "http://www.w3.org/Graphics/SVG/1.1/DTD/svg11.dtd">
<svg version="1.1" id="Layer_1" xmlns="http://www.w3.org/2000/svg" xmlns:xlink="http://www.w3.org/1999/xlink" x="0px" y="0px"
	 width="1144.12px" height="400px" viewBox="0 0 572.06 200" style="enable-background:new 0 0 572.06 200;" xml:space="preserve">
<style type="text/css">
<![CDATA[
	svg{background-color:white;}
	.st0{fill:#81CCAA;}
	.st1{fill:#B8E4C2;}
	.st2{fill:#1F2600;}
	.st3{fill:#F69C0D;}
	.st4{fill:#F6FDC4;}
]]>
</style>
<path class="st3" d="M50.43,68.52c0,0-8.81,2.58-10.93,4.86l9.12,9.87C48.61,83.24,48.76,74.28,50.43,68.52"/>
<path class="st1" d="M48.42,78.11c0-17.45,14.14-31.58,31.59-31.58s31.59,14.14,31.59,31.58c0,17.44-14.14,31.59-31.59,31.59
	S48.42,95.56,48.42,78.11"/>
<path class="st1" d="M109.19,69.88c0,0-8.5-27.33-42.51-18.53c-34.02,8.81-20.65,91.11,45.25,84.73
	c40.39-3.65,48.59-24.6,48.59-24.6S124.68,106.02,109.19,69.88"/>
<path class="st4" d="M60.53,71.68c0-6.33,5.13-11.46,11.46-11.46c6.33,0,11.46,5.13,11.46,11.46c0,6.33-5.13,11.46-11.46,11.46
	C65.66,83.14,60.53,78.01,60.53,71.68"/>
<path class="st2" d="M64.45,71.68c0-4.16,3.38-7.53,7.54-7.53c4.16,0,7.53,3.37,7.53,7.53c0,4.16-3.37,7.53-7.53,7.53
	C67.82,79.22,64.45,75.84,64.45,71.68"/>
<path class="st4" d="M72.39,74.39c0-2.73,2.22-4.95,4.95-4.95c2.73,0,4.95,2.21,4.95,4.95c0,2.74-2.22,4.95-4.95,4.95
	C74.6,79.34,72.39,77.13,72.39,74.39"/>
<path class="st0" d="M105.78,75.09c4.56,0,8.84,1.13,12.62,3.11c0,0,0.01-0.01,0.01-0.01l36.23,12.38c0,0-13.78,30.81-41.96,38.09
	c-1.51,0.39-2.82,0.59-3.99,0.62c-0.96,0.1-1.92,0.16-2.9,0.16c-15.01,0-27.17-12.17-27.17-27.17
	C78.61,87.26,90.78,75.09,105.78,75.09"/>
<path class="st0" d="M463.35,65.85c4.56,0,8.85,1.13,12.62,3.11c0,0,0.01-0.01,0.01-0.01l36.23,12.38c0,0-13.78,30.81-41.96,38.09
	c-1.51,0.39-2.82,0.59-3.99,0.62c-0.96,0.1-1.92,0.16-2.9,0.16c-15.01,0-27.17-12.17-27.17-27.17
	C436.18,78.01,448.34,65.85,463.35,65.85"/>
<path class="st1" d="M412.14,99.49c0,0-8.5-27.33-42.51-18.53c-34.02,8.81-20.65,91.11,45.25,84.73
	c40.39-3.65,48.59-24.6,48.59-24.6S427.63,135.63,412.14,99.49"/>
<path class="st1" d="M354.66,40.1c0-17.45,14.14-31.58,31.59-31.58s31.58,14.14,31.58,31.58c0,17.44-14.14,31.59-31.58,31.59
	S354.66,57.54,354.66,40.1"/>
<path class="st3" d="M291.49,52.86c0,0-8.81,2.58-10.93,4.86l9.12,9.87C289.68,67.59,289.83,58.63,291.49,52.86"/>
<path class="st2" d="M314.07,78.11c0-4.16,3.38-7.53,7.54-7.53c4.16,0,7.53,3.37,7.53,7.53c0,4.16-3.37,7.53-7.53,7.53
	C317.45,85.65,314.07,82.27,314.07,78.11"/>
<path class="st4" d="M298.7,67.59c0-6.33,5.13-11.46,11.46-11.46c6.33,0,11.46,5.13,11.46,11.46c0,6.33-5.13,11.46-11.46,11.46
	C303.82,79.05,298.7,73.92,298.7,67.59"/>
<path class="st4" d="M322.64,83.14c0-2.73,2.22-4.95,4.95-4.95c2.73,0,4.95,2.21,4.95,4.95c0,2.74-2.22,4.95-4.95,4.95
	C324.85,88.09,322.64,85.87,322.64,83.14"/>
<g>
	<path d="M216.71,81.67v-1.88h16.99v1.88H216.71z M216.71,88.14v-1.83h16.99v1.83H216.71z"/>
</g>
<g>
</g>
<g>
</g>
<g>
</g>
<g>
</g>
<g>
</g>
<g>
</g>
<g>
</g>
<g>
</g>
<g>
</g>
<g>
</g>
<g>
</g>
<g>
</g>
<g>
</g>
<g>
</g>
<g>
</g>
</svg>
